<svg xmlns="http://www.w3.org/2000/svg" width="600" height="600" viewBox="0 0 600 600" fill="none"><metadata><rdf:RDF xmlns:rdf="http://www.w3.org/1999/02/22-rdf-syntax-ns#" xmlns:dc="http://purl.org/dc/elements/1.1/"><rdf:Description><dc:creator>RealFaviconGenerator</dc:creator><dc:source>https://realfavicongenerator.net</dc:source></rdf:Description></rdf:RDF></metadata><rect width="600" height="600" fill="#C2452D"></rect><path d="M460.694 465.238C453.161 465.238 446.357 463.294 440.282 459.406C434.207 455.518 429.347 450.293 425.702 443.732C422.3 436.928 420.599 429.517 420.599 421.498C420.599 413.722 422.3 406.553 425.702 399.992C429.347 393.188 434.207 387.842 440.282 383.954C446.6 380.066 453.404 378.122 460.694 378.122C468.47 378.122 475.395 380.188 481.47 384.319C487.788 388.207 492.648 393.431 496.05 399.992C499.695 406.553 501.518 413.722 501.518 421.498C501.518 429.517 499.695 436.928 496.05 443.732C492.405 450.293 487.545 455.518 481.47 459.406C475.395 463.294 468.47 465.238 460.694 465.238Z" fill="white"></path><path d="M387.179 215.919C387.179 226.125 384.263 234.387 378.431 240.705C372.842 247.023 365.066 250.182 355.103 250.182C345.14 250.182 337.121 247.023 331.046 240.705C324.971 234.144 321.933 224.91 321.933 213.003V191.498C321.933 175.946 317.073 163.553 307.353 154.319C297.876 144.842 284.632 140.103 267.622 140.103C250.126 140.103 234.939 145.813 222.06 157.234C209.181 168.412 199.218 184.086 192.171 204.255C185.124 224.424 181.6 247.995 181.6 274.968C181.6 307.287 186.339 334.625 195.816 356.981C205.536 379.337 218.658 396.225 235.182 407.646C251.949 419.067 270.782 424.778 291.68 424.778C314.279 424.778 333.719 419.31 350 408.375C366.281 397.197 377.702 380.066 384.263 356.981C384.506 356.252 384.749 355.766 384.992 355.523C385.478 355.037 385.964 354.794 386.45 354.794C386.936 355.037 387.3 355.401 387.543 355.887C387.786 356.373 387.786 356.981 387.543 357.71C382.44 381.038 373.935 400.721 362.028 416.759C350.121 432.797 335.42 445.068 317.924 453.573C300.67 461.835 281.109 465.966 259.239 465.966C232.995 465.966 209.303 459.891 188.162 447.741C167.264 435.591 150.618 417.731 138.225 394.16C126.075 370.346 120 341.064 120 306.315C120 274.482 126.439 245.687 139.319 219.929C152.197 193.928 170.18 173.273 193.265 157.964C216.35 142.655 243.079 135 273.454 135C297.754 135 318.288 138.645 335.055 145.935C352.065 152.982 364.944 162.702 373.692 175.095C382.683 187.245 387.179 200.853 387.179 215.919Z" fill="white"></path></svg>